<?xml version="1.0" encoding="utf-8"?>
<!-- Generator: Adobe Illustrator 26.0.1, SVG Export Plug-In . SVG Version: 6.00 Build 0)  -->
<svg version="1.1" id="Calque_1" xmlns="http://www.w3.org/2000/svg" xmlns:xlink="http://www.w3.org/1999/xlink" x="0px" y="0px"
	 viewBox="0 0 537.2 556.5" style="enable-background:new 0 0 537.2 556.5;" xml:space="preserve">
<style type="text/css">
	.st0{fill:#B7BF96;}
</style>
<path class="st0" d="M266.4,338.2c0-6.2,0.2-12.4-0.1-18.6c-1.2-29.9-2.5-59.9-3.7-89.8c-0.2-4.8-0.1-9.5,0.2-14.3
	c1.4-21.2-7.2-38.3-21.9-52.9c-10.8-10.8-22.1-20.8-38.2-22.9c-4.4-0.6-8.9-1.1-13.4-1.6c-1.1-0.1-2.2-0.3-3.3-0.4
	c-0.7-0.1-1.1-0.7-1-1.3c0.1-0.5,0.5-0.9,1-1c9.4-1.6,25.3-0.2,36.3,3.8c12.5,4.5,22.7,12.5,32.8,21.2c0.5,0.4,1.3,0.4,1.7-0.1
	c0.2-0.2,0.3-0.6,0.3-0.9c-1.1-16.7-5.2-33.1-12.1-48.3c-7.8-17-21.7-26.9-37.6-35.1c-0.4-0.2-0.6-0.8-0.4-1.2c0,0,0,0,0,0l0,0
	c0.2-0.4,0.6-0.5,1-0.4c1.5,0.4,3.1,0.8,4.6,1.2c21.3,6.6,36,20.9,46.2,40.2c9.3,17.5,14.5,36.4,18.2,55.8c0.2,1,0.4,1.9,0.7,3.1
	c0.2,0.6,0.8,1,1.5,0.8c0.3-0.1,0.6-0.3,0.8-0.6c11-22.9,26-39.4,50.1-43.1c0.7-0.1,1.3,0.4,1.3,1c0.1,0.6-0.3,1.1-0.8,1.3h-0.1
	c-17.3,5-29.1,16.4-36.5,32.4c-7.3,16.1-11.1,33.7-10.9,51.4c0,23.7,0.6,47.4,1,71.2c0,0.4,0.3,0.8,0.7,0.9l0.4,0.1
	c0.3,0.1,0.6,0,0.8-0.2c0.9-0.6,1.6-1.3,2.3-2.1c21-30.9,48-56.1,75.8-80.6c4.8-4.2,8.9-9.5,13-14.5c11.4-13.9,12.3-30,9.2-46.9
	c-0.3-1.8-0.6-3.7-0.8-5.5c-0.1-0.7,0.4-1.2,1.1-1.3c0.5,0,1,0.3,1.2,0.7c3.6,9.1,4.4,18.7,4.4,28.5c-0.1,11.1-3.9,21.3-8.9,31.3
	c-0.3,0.6-0.1,1.3,0.5,1.6c0.2,0.1,0.4,0.1,0.7,0.1c13.5-1.6,26.1-3.4,38.7-4.1c10.6-0.4,21.3,1.3,31.2,5c0.6,0.2,0.9,0.9,0.7,1.5
	c-0.2,0.5-0.7,0.8-1.2,0.8c-4.8-0.5-9.7-1-14.5-1.4c-29.4-2.6-55.7,5.2-76.7,26.2c-11.1,11.1-20.4,24.1-30.5,36.3
	c-0.8,1-1.5,2.1-2,3.3c-0.3,0.6-0.1,1.3,0.5,1.6c0.2,0.1,0.5,0.2,0.8,0.1c13.3-2.9,26-6.4,38.9-8.1c13.9-1.9,27.5,1.8,40.6,6.3
	s24.4,11.7,35.2,20c0.5,0.3,0.6,1,0.3,1.5l-0.2,0.3c-3.1-1.5-6.2-2.8-9.2-4.5c-10.5-5.8-21.3-11-33.1-13.5c-34-7.3-79.8,9-99.1,48.5
	c-9.8,19.9-12.6,41.1-12.7,62.5c-0.2,41.6,0.8,74.7,1.9,116.3c0.4,14.1,10.8,36.9,17.3,50.1c2.4,4.9,1.1,6.4-4.6,6.7
	c-3.2,0.2-79.7-0.4-89.7-0.4c-0.5,0-1-0.4-1.1-0.9l-0.1-0.3c-0.1-0.3,0-0.7,0.2-1c1.9-2.7,3.7-5.4,5.8-7.9
	c19.2-23.7,29-51.3,33.8-81c2.5-15.7,3.2-31.5-0.1-47.2c-2.5-12.1-6.3-23.9-14.2-33.7c-9.9-12.4-24.1-16.2-38.7-18.4
	c-20-3-38.5,2.7-56.2,11.7l-4,2c-0.6,0.3-1.3,0.1-1.6-0.4c-0.3-0.6-0.1-1.3,0.4-1.6l0,0c31.7-22,66.7-25.2,104.4-12.7
	c0.6,0.2,1.3-0.1,1.5-0.8c0.1-0.2,0.1-0.3,0.1-0.5c0-0.3-0.1-0.6-0.2-0.9c-12-19.3-20.6-40.8-36.3-57.8
	c-11.2-12.1-22.7-23.7-37.4-32c-18.1-10.2-37.1-11.8-57-9.8c-4.2,0.4-8.4,0.9-12.7,1.3c-0.7,0.1-1.2-0.4-1.3-1.1
	c0-0.5,0.3-1,0.8-1.2c10.3-3.8,21.3-5.6,32.3-5.3c12.6,0.4,25.2,2.9,38.4,4.7c0.7,0.1,1.3-0.4,1.3-1c0-0.2,0-0.4-0.1-0.6
	c-7.7-19.2-9.2-38.3,0.1-56.9c0.3-0.6,1-0.8,1.6-0.5c0.5,0.2,0.7,0.8,0.6,1.3c-1,5.4-2,10.9-2.7,16.3c-2.2,16.3,2.4,30.9,13.4,42.9
	c7.1,7.6,15.4,14.2,23.5,20.9c17.5,14.4,33.1,31,46.2,49.5c1.6,2.3,3.4,4.5,5.1,6.7L266.4,338.2z"/>
<path class="st0" d="M108.6,305.3c12.9-5.1,26.6-8.3,40.4-9.4c15.4-1.3,28.4,3.7,40.1,13.2c10.1,8.2,19.6,16.9,27.8,27.6
	c-7.9,5.1-16.5,6.1-25,7.6c-5.7,1-11.5,1.6-17.4,1.9c-12.3,0.8-24.2-1.5-33.9-9.4c-10.2-8.4-19.5-17.9-29.2-27
	C110.5,308.6,109.8,307,108.6,305.3z"/>
<path class="st0" d="M410.8,286.1c-10.3,18.9-21.7,35.4-40.2,45.2c-11,5.9-23.5,5.7-35.6,5.3c-9-0.3-18-1.7-27.1-2.6
	c0.2-1.9,0.1-2.4,0.3-2.8c9.4-15.8,20.8-29.7,35.9-40.3c7.2-5,15.5-6.6,24-7.4C382.1,282.2,395.9,283.2,410.8,286.1z"/>
<path class="st0" d="M485.1,240.6c-11.7,10-24.9,15.4-38.4,20.1c-14.5,5-28.1,2.3-41.5-4c-11.6-5.5-23-11.2-32.8-20.5
	c1-1,2-1.8,3.1-2.6c12.7-7.9,26.7-13.7,41.2-17.3c10.7-2.6,21.1-1.2,31.2,2.9C461.3,224.5,473.8,231.7,485.1,240.6z"/>
<path class="st0" d="M162.4,250.2c-4.5,0-8.4,0.6-12-0.1c-10.6-2.1-21.2-4.3-31.5-7.3c-11.4-3.3-20.3-10.3-27.1-20.1
	c-8.1-11.7-17-30.6-18.6-40.9c3.6,0,7.2-0.5,10.7,0.1c11.4,2.1,22.9,4,34.1,7c11.6,3.1,20.3,10.9,26,21.2
	c6,10.7,11.1,21.9,16.5,32.9C161.4,245,161.6,247.4,162.4,250.2z"/>
<path class="st0" d="M395.3,412c-3.6,0.5-6.5,1.2-9.4,1.2c-13.9-0.2-27.5-2.1-40.6-6.9c-8.4-3.1-15.6-8.2-20.3-15.5
	c-7.4-11.6-13.9-23.8-20.6-35.8c-0.7-1.5-1.2-3.1-1.6-4.7c-0.1-0.8-0.1-1.6,0-2.4c11.9-0.7,23.5,1,35.1,3.5c10,2.2,19.9,5,27.6,12
	C379.8,376.5,388,393.6,395.3,412z"/>
<path class="st0" d="M479.6,109.8c-1.4,14.8-5.4,29.1-11.9,42.5c-4.9,10.7-13.5,19.3-24.2,24.2c-12.6,6.1-25.6,11.1-39.6,13.1
	c-1.4,0.1-2.8,0.1-4.1,0c0.7-3.5,0.9-6.7,1.9-9.6c3.7-10.8,7.2-21.8,11.6-32.3c5.4-12.7,15.2-21.5,27.9-26.4
	c10.8-4.2,22-7.4,33.1-10.9C475.8,109.9,477.5,110,479.6,109.8z"/>
<path class="st0" d="M252.2,292.9c-3.1-0.9-5.7-1.2-7.7-2.4c-11-6.4-22.3-12.5-32.8-19.7c-9.7-6.6-15.2-16.4-18.3-27.7
	c-3.9-14.1-5.6-28.6-5-43.2c1.1,0,2.2,0.2,3.2,0.4c13.4,4.8,25.9,11.1,37.2,19.9c8.4,6.3,14.6,15.3,17.5,25.4
	c3.9,13.6,6,27.6,6.4,41.8C252.7,288.8,252.4,290.3,252.2,292.9z"/>
<path class="st0" d="M117.6,444.3c5.1-19.3,11.6-37,25.2-50.8c5.4-5.2,11.9-9.1,19.1-11.2c12.6-3.9,25.8-6.1,38.8-8.9
	c1.4-0.3,2.9,0,5.1,0c-0.5,2.3-0.8,4.2-1.3,6c-4.3,13.8-10.8,26.9-19.1,38.8c-6.5,9.2-15.4,15.1-25.9,18.7
	C146.2,441.2,132.8,444.8,117.6,444.3z"/>
<path class="st0" d="M321.7,40.5c3.9,13.8,5.5,28.1,4.8,42.4c-0.6,15.5-7.5,27.8-18.5,38c-7.2,6.6-14.8,12.9-22.4,19.1
	c-2.1,1.7-4.8,2.8-8.1,4.6c-1-5.5-2.2-10-2.5-14.5c-0.6-8.5-1-17-1-25.4C274,88.1,280,74,292.3,62.9c9-8.1,18.4-15.7,27.6-23.5
	L321.7,40.5z"/>
<path class="st0" d="M342.1,142.2c5.4,18.8,8.2,36.9,4.1,55.2c-1.5,6.7-4.6,12.8-9,18c-9.4,10.3-20,19.4-30.2,29
	c-1.5,1.4-3.7,2.1-6.6,3.7c-1.2-6.6-2.8-12.4-3.1-18.2c-0.5-10.8-0.8-21.6-0.3-32.3c0.5-10.5,5.7-19.4,12.5-27.2
	C318.9,159.4,329.9,149.9,342.1,142.2z"/>
<path class="st0" d="M156.8,356.5c-26.9,22.9-66.2,19.5-90.5-7.7c7.9-3.7,15.3-7.4,23-10.6c14.8-6.1,29.2-5.6,43,2.9
	C140.3,345.9,148.2,351,156.8,356.5z"/>
<path class="st0" d="M13.8,239c13.6-8.1,27.4-14.1,42.8-14.5c4.8-0.1,9.8,1.7,14.4,3.5c11.9,4.6,22.3,11.7,32.3,20.7
	c-3.2,1.9-5.6,4.1-8.5,5.1c-9.4,3.2-18.9,6.2-28.4,8.9c-7.3,2.1-14.5,0.4-21.4-2.4C33.9,255.8,20.5,246.8,13.8,239z"/>
<path class="st0" d="M534.3,274.4c-22.1,24.8-63.7,23.6-89.6-2.5c12.7-8.5,26-15.3,41.1-16.6C504.6,253.6,519.2,264.5,534.3,274.4z"
	/>
<path class="st0" d="M446.5,183c14.2-8.7,27.6-15.6,43.1-16.9c4.6-0.3,9.3,0.3,13.7,1.8c12.3,3.6,23.1,9.9,34,18.1
	c-13.2,10.3-27,18.3-43.3,18.4C475.8,204.2,461.3,194.4,446.5,183z"/>
<path class="st0" d="M417.1,290.2c35.5,2.6,63.2,31.3,62.6,64.5c-15.7-1.1-30.2-5.6-41.9-15.9C423.7,326.2,420.8,308.3,417.1,290.2z
	"/>
<path class="st0" d="M449.4,357.6c-15.6,9.2-30.5,15.7-46.8,13.3c-17.5-2.6-30.8-13.8-43.4-26.6c9.4-5.3,19-7.9,28.6-10.3
	c14.1-3.6,27-1.3,38.9,7C434,346,441,351.5,449.4,357.6z"/>
<path class="st0" d="M153.5,80.5c19.2-3,48.6-1.4,61.5,19.9c4.1,6.8,8.4,13.6,12.5,20.4c1.1,2.2,2.1,4.5,3,6.9
	c-16,2.1-31.1,0.7-44.8-5.8C168.4,113.6,161.2,96.9,153.5,80.5z"/>
<path class="st0" d="M115.4,270.9c-4.6,18.1-9.5,34.6-23.1,45.9c-12.4,10.3-28.1,13.5-44.9,14.7c0.4-2.7,0.9-5.4,1.6-8
	c1.7-5.2,3.6-10.3,5.4-15.5c6.6-19.5,21.7-28.6,40.6-32.9C101.4,273.6,107.8,272.5,115.4,270.9z"/>
<path class="st0" d="M226.4,69.8C194,68.3,165.1,32,170.1,0c15.3,4.1,30,9.4,41,21.1c8.1,8.6,10.3,20.3,12.7,31.5
	C225,58.2,225.5,63.7,226.4,69.8z"/>
<path class="st0" d="M414.4,54.9c8,14.2,12.8,28,13.3,43.2c0,2.8-0.5,5.6-1.5,8.3c-4.8,14.6-13.6,26.5-24.9,38.6
	c-7.2-12.1-11.4-25.8-12.3-39.8C387.8,84.2,401.8,70.4,414.4,54.9z"/>
<path class="st0" d="M160.8,211.2c-13.2-11.2-24.4-22.9-28.9-38.6c-4.8-16.8,0.7-33.1,6.7-49.9c13.3,11.1,25.5,22.2,29.5,38.4
	C172.2,178,167,194.3,160.8,211.2z"/>
<path class="st0" d="M240,8.7c13.2,11.2,25.6,21.9,29.8,37.9c4.4,16.8-0.7,33.2-6.7,50.4c-12.7-10.2-22.9-21.3-28.3-35.6
	C228.1,43.8,234.4,26.8,240,8.7z"/>
<path class="st0" d="M0,296.6c20.1-29.6,35.6-34,70.2-23.1C62,298.2,24.6,310.6,0,296.6z"/>
<path class="st0" d="M120.2,384C102,412.3,81,419.9,50,406.8C59,382.4,92.6,371.3,120.2,384z"/>
<path class="st0" d="M532.4,340.8c-22.9,10.1-57-13-61-41.3C498.5,293.9,526.9,313.1,532.4,340.8z"/>
<path class="st0" d="M243.4,184.2c-34.7,8.1-53.2-2.9-67.4-33.5c12.9-2.3,25.6-4,37.7,1C228.3,157.6,235.2,171.1,243.4,184.2z"/>
<path class="st0" d="M186.9,61.5c-28.2,19.1-50,16.8-73.4-7.3C132,35.4,167.1,38.7,186.9,61.5z"/>
<path class="st0" d="M326.1,123.9c0.6-28.8,22-50.3,51.8-52.5C382.4,96.8,352.6,127.3,326.1,123.9z"/>
</svg>
